# xmcd
#
# Track frame offsets: 
#        150
#        24538
#        61183
#        81052
#        97962
#        120922
#        146306
#        166490
#        189527
#        211053
#
# Disc length: 3242 seconds
#
# Revision: 0
# Processed by: cddbd v1.5.2PL0 Copyright (c) Steve Scherf et al.
# Submitted via: ExactAudioCopy v1.3
#
DISCID=750ca80a
DTITLE=Blindside Blues Band - Live at Satyr Blues
DYEAR=2019
DGENRE=Blues Rock
TTITLE0=Let The Blues Do The Healing
TTITLE1=Crying Shame
TTITLE2=Renegade
TTITLE3=Flying
TTITLE4=Blues In My Soul
TTITLE5=Hit The Highway
TTITLE6=Smokehouse Shuffle
TTITLE7=Hot Shot
TTITLE8=Crossroads
TTITLE9=Climb The Sky
EXTD=
EXTT0=
EXTT1=
EXTT2=
EXTT3=
EXTT4=
EXTT5=
EXTT6=
EXTT7=
EXTT8=
EXTT9=
PLAYORDER=
